<svg xmlns="http://www.w3.org/2000/svg" version="1.1" xmlns:xlink="http://www.w3.org/1999/xlink" xmlns:svgjs="http://svgjs.com/svgjs" width="1440" height="560" preserveAspectRatio="none" viewBox="0 0 1440 560"><g mask="url(&quot;#SvgjsMask1292&quot;)" fill="none"><rect width="1440" height="560" x="0" y="0" fill="rgba(135, 212, 254, 1)"></rect><path d="M1442.01 112.96C1321.41 112.77 1203.36 42.96 964.72 42.96 726.07 42.96 728.25 113.25 487.43 112.96 246.61 112.67 139.38-82.3 10.14-86.24" stroke="rgba(51,121,194,0.58)" stroke-width="2"></path><path d="M1649.57 303.73C1480.03 300.27 1341.28 76.92 1011.3 74.13 681.33 71.34 534.8-31.71 373.04-32.07" stroke="rgba(51,121,194,0.58)" stroke-width="2"></path><path d="M1726.82 544.51C1592.96 542.57 1450 409.1 1216.53 382.11 983.06 355.12 1065.61 47.63 961.38-1.27" stroke="rgba(51,121,194,0.58)" stroke-width="2"></path><path d="M1625.77 344.1C1521.86 343.85 1420.92 274.1 1216.07 274.1 1011.22 274.1 1023.91 348.47 806.38 344.1 588.84 339.73 531.3 5.67 396.68-19.2" stroke="rgba(51,121,194,0.58)" stroke-width="2"></path><path d="M1580.87 103.08C1406.12 108.38 1259.37 372 935.26 371.88 611.15 371.76 477.05 0.97 289.65-13.29" stroke="rgba(51,121,194,0.58)" stroke-width="2"></path></g><defs><mask id="SvgjsMask1292"><rect width="1440" height="560" fill="#ffffff"></rect></mask></defs></svg>