<?xml version="1.0" encoding="UTF-8"?>
<svg xmlns="http://www.w3.org/2000/svg" xmlns:xlink="http://www.w3.org/1999/xlink" width="260pt" height="236pt" viewBox="0 0 260 236" version="1.1">
<defs>
<clipPath id="clip1">
  <path d="M 50 118 L 57 118 L 57 127 L 50 127 Z M 50 118 "/>
</clipPath>
<clipPath id="clip2">
  <path d="M 59.382812 123.398438 C 58.832031 125.6875 56.53125 127.097656 54.238281 126.546875 C 51.945312 126 50.535156 123.703125 51.082031 121.414062 C 51.632812 119.125 53.9375 117.714844 56.226562 118.265625 C 58.519531 118.8125 59.933594 121.113281 59.382812 123.398438 Z M 59.382812 123.398438 "/>
</clipPath>
</defs>
<g id="surface1">
<path style=" stroke:none;fill-rule:nonzero;fill:rgb(84.313725%,90.980392%,96.862745%);fill-opacity:1;" d="M 41.152344 48.371094 L 222.753906 48.371094 L 222.753906 163.355469 L 41.152344 163.355469 Z M 41.152344 48.371094 "/>
<path style=" stroke:none;fill-rule:nonzero;fill:rgb(53.333333%,47.058824%,97.647059%);fill-opacity:1;" d="M 166.527344 100.652344 L 98.484375 100.652344 C 96.695312 100.652344 95.246094 99.203125 95.246094 97.417969 L 95.246094 64.355469 C 95.246094 62.566406 96.695312 61.117188 98.484375 61.117188 L 166.527344 61.117188 C 168.320312 61.117188 169.769531 62.566406 169.769531 64.355469 L 169.769531 97.417969 C 169.769531 99.203125 168.320312 100.652344 166.527344 100.652344 Z M 166.527344 100.652344 "/>
<path style=" stroke:none;fill-rule:nonzero;fill:rgb(100%,100%,100%);fill-opacity:1;" d="M 210.320312 97.292969 L 181.105469 97.292969 C 179.8125 97.292969 178.765625 96.246094 178.765625 94.957031 L 178.765625 63.453125 C 178.765625 62.164062 179.8125 61.117188 181.105469 61.117188 L 210.320312 61.117188 C 211.613281 61.117188 212.664062 62.164062 212.664062 63.453125 L 212.664062 94.957031 C 212.664062 96.246094 211.613281 97.292969 210.320312 97.292969 Z M 210.320312 97.292969 "/>
<path style=" stroke:none;fill-rule:nonzero;fill:rgb(100%,100%,100%);fill-opacity:1;" d="M 210.359375 152.089844 L 142.511719 152.089844 C 141.238281 152.089844 140.207031 151.058594 140.207031 149.789062 L 140.207031 109.601562 C 140.207031 108.332031 141.238281 107.304688 142.511719 107.304688 L 210.359375 107.304688 C 211.628906 107.304688 212.664062 108.332031 212.664062 109.601562 L 212.664062 149.789062 C 212.664062 151.058594 211.628906 152.089844 210.359375 152.089844 Z M 210.359375 152.089844 "/>
<path style=" stroke:none;fill-rule:nonzero;fill:rgb(100%,100%,100%);fill-opacity:1;" d="M 126.085938 114.082031 L 95.898438 114.082031 C 95.304688 114.082031 94.824219 113.601562 94.824219 113.011719 L 94.824219 112.910156 C 94.824219 112.316406 95.304688 111.839844 95.898438 111.839844 L 126.085938 111.839844 C 126.675781 111.839844 127.15625 112.316406 127.15625 112.910156 L 127.15625 113.011719 C 127.15625 113.601562 126.675781 114.082031 126.085938 114.082031 Z M 126.085938 114.082031 "/>
<path style=" stroke:none;fill-rule:nonzero;fill:rgb(100%,100%,100%);fill-opacity:1;" d="M 126.085938 121.117188 L 95.898438 121.117188 C 95.304688 121.117188 94.824219 120.636719 94.824219 120.042969 L 94.824219 119.945312 C 94.824219 119.351562 95.304688 118.871094 95.898438 118.871094 L 126.085938 118.871094 C 126.675781 118.871094 127.15625 119.351562 127.15625 119.945312 L 127.15625 120.042969 C 127.15625 120.636719 126.675781 121.117188 126.085938 121.117188 Z M 126.085938 121.117188 "/>
<path style=" stroke:none;fill-rule:nonzero;fill:rgb(100%,100%,100%);fill-opacity:1;" d="M 116.660156 128.148438 L 95.898438 128.148438 C 95.304688 128.148438 94.824219 127.671875 94.824219 127.078125 L 94.824219 126.976562 C 94.824219 126.386719 95.304688 125.90625 95.898438 125.90625 L 116.660156 125.90625 C 117.25 125.90625 117.730469 126.386719 117.730469 126.976562 L 117.730469 127.078125 C 117.730469 127.671875 117.25 128.148438 116.660156 128.148438 Z M 116.660156 128.148438 "/>
<path style=" stroke:none;fill-rule:nonzero;fill:rgb(100%,100%,100%);fill-opacity:1;" d="M 116.660156 135.183594 L 95.898438 135.183594 C 95.304688 135.183594 94.824219 134.703125 94.824219 134.113281 L 94.824219 134.011719 C 94.824219 133.417969 95.304688 132.941406 95.898438 132.941406 L 116.660156 132.941406 C 117.25 132.941406 117.730469 133.417969 117.730469 134.011719 L 117.730469 134.113281 C 117.730469 134.703125 117.25 135.183594 116.660156 135.183594 Z M 116.660156 135.183594 "/>
<path style=" stroke:none;fill-rule:nonzero;fill:rgb(100%,100%,100%);fill-opacity:1;" d="M 116.660156 149.3125 L 95.898438 149.3125 C 95.304688 149.3125 94.824219 148.832031 94.824219 148.242188 L 94.824219 148.136719 C 94.824219 147.546875 95.304688 147.066406 95.898438 147.066406 L 116.660156 147.066406 C 117.25 147.066406 117.730469 147.546875 117.730469 148.136719 L 117.730469 148.242188 C 117.730469 148.832031 117.25 149.3125 116.660156 149.3125 Z M 116.660156 149.3125 "/>
<path style=" stroke:none;fill-rule:nonzero;fill:rgb(100%,100%,100%);fill-opacity:1;" d="M 126.085938 142.21875 L 95.898438 142.21875 C 95.304688 142.21875 94.824219 141.738281 94.824219 141.148438 L 94.824219 141.042969 C 94.824219 140.453125 95.304688 139.972656 95.898438 139.972656 L 126.085938 139.972656 C 126.675781 139.972656 127.15625 140.453125 127.15625 141.042969 L 127.15625 141.148438 C 127.15625 141.738281 126.675781 142.21875 126.085938 142.21875 Z M 126.085938 142.21875 "/>
<path style=" stroke:none;fill-rule:nonzero;fill:rgb(84.313725%,90.980392%,96.862745%);fill-opacity:1;" d="M 145.644531 89.417969 L 104.195312 89.417969 C 103.605469 89.417969 103.125 88.9375 103.125 88.347656 L 103.125 88.246094 C 103.125 87.652344 103.605469 87.175781 104.195312 87.175781 L 145.644531 87.175781 C 146.238281 87.175781 146.71875 87.652344 146.71875 88.246094 L 146.71875 88.347656 C 146.71875 88.9375 146.238281 89.417969 145.644531 89.417969 Z M 145.644531 89.417969 "/>
<path style=" stroke:none;fill-rule:nonzero;fill:rgb(84.313725%,90.980392%,96.862745%);fill-opacity:1;" d="M 125.804688 94.6875 L 104.195312 94.6875 C 103.605469 94.6875 103.121094 94.207031 103.121094 93.617188 L 103.121094 93.511719 C 103.121094 92.921875 103.605469 92.441406 104.195312 92.441406 L 125.804688 92.441406 C 126.398438 92.441406 126.878906 92.921875 126.878906 93.511719 L 126.878906 93.617188 C 126.878906 94.207031 126.398438 94.6875 125.804688 94.6875 Z M 125.804688 94.6875 "/>
<path style=" stroke:none;fill-rule:nonzero;fill:rgb(84.313725%,90.980392%,96.862745%);fill-opacity:1;" d="M 186.484375 94.6875 L 184.714844 94.6875 C 184.121094 94.6875 183.640625 94.207031 183.640625 93.617188 L 183.640625 93.511719 C 183.640625 92.921875 184.121094 92.441406 184.714844 92.441406 L 186.484375 92.441406 C 187.074219 92.441406 187.554688 92.921875 187.554688 93.511719 L 187.554688 93.617188 C 187.554688 94.207031 187.074219 94.6875 186.484375 94.6875 Z M 186.484375 94.6875 "/>
<path style=" stroke:none;fill-rule:nonzero;fill:rgb(84.313725%,90.980392%,96.862745%);fill-opacity:1;" d="M 206.84375 89.851562 L 184.714844 89.851562 C 184.121094 89.851562 183.640625 89.371094 183.640625 88.78125 L 183.640625 88.679688 C 183.640625 88.085938 184.121094 87.609375 184.714844 87.609375 L 206.84375 87.609375 C 207.4375 87.609375 207.917969 88.085938 207.917969 88.679688 L 207.917969 88.78125 C 207.917969 89.371094 207.4375 89.851562 206.84375 89.851562 Z M 206.84375 89.851562 "/>
<path style=" stroke:none;fill-rule:nonzero;fill:rgb(79.215686%,87.45098%,93.72549%);fill-opacity:1;" d="M 238.90625 164.535156 L 28.789062 164.535156 C 28.464844 164.535156 28.199219 164.273438 28.199219 163.945312 C 28.199219 163.621094 28.464844 163.359375 28.789062 163.359375 L 238.90625 163.359375 C 239.234375 163.359375 239.496094 163.621094 239.496094 163.945312 C 239.496094 164.273438 239.234375 164.535156 238.90625 164.535156 Z M 238.90625 164.535156 "/>
<path style=" stroke:none;fill-rule:nonzero;fill:rgb(35.686275%,35.686275%,76.862745%);fill-opacity:1;" d="M 37.773438 48.371094 L 84.832031 48.371094 L 84.832031 163.355469 L 37.773438 163.355469 Z M 37.773438 48.371094 "/>
<path style=" stroke:none;fill-rule:nonzero;fill:rgb(53.333333%,47.058824%,97.647059%);fill-opacity:1;" d="M 218.621094 37.269531 L 41.90625 37.269531 C 39.625 37.269531 37.773438 39.117188 37.773438 41.394531 L 37.773438 48.371094 L 222.753906 48.371094 L 222.753906 41.394531 C 222.753906 39.117188 220.902344 37.269531 218.621094 37.269531 Z M 218.621094 37.269531 "/>
<path style=" stroke:none;fill-rule:nonzero;fill:rgb(85.490196%,91.764706%,100%);fill-opacity:1;" d="M 52.453125 42.820312 C 52.453125 41.582031 51.449219 40.578125 50.207031 40.578125 C 48.96875 40.578125 47.960938 41.582031 47.960938 42.820312 C 47.960938 44.058594 48.96875 45.0625 50.207031 45.0625 C 51.449219 45.0625 52.453125 44.058594 52.453125 42.820312 Z M 52.453125 42.820312 "/>
<path style=" stroke:none;fill-rule:nonzero;fill:rgb(100%,83.137255%,45.490196%);fill-opacity:1;" d="M 59.105469 42.820312 C 59.105469 41.582031 58.101562 40.578125 56.859375 40.578125 C 55.621094 40.578125 54.617188 41.582031 54.617188 42.820312 C 54.617188 44.058594 55.621094 45.0625 56.859375 45.0625 C 58.101562 45.0625 59.105469 44.058594 59.105469 42.820312 Z M 59.105469 42.820312 "/>
<path style=" stroke:none;fill-rule:nonzero;fill:rgb(85.490196%,91.764706%,100%);fill-opacity:1;" d="M 65.761719 42.820312 C 65.761719 41.582031 64.753906 40.578125 63.515625 40.578125 C 62.277344 40.578125 61.269531 41.582031 61.269531 42.820312 C 61.269531 44.058594 62.277344 45.0625 63.515625 45.0625 C 64.753906 45.0625 65.761719 44.058594 65.761719 42.820312 Z M 65.761719 42.820312 "/>
<path style=" stroke:none;fill-rule:nonzero;fill:rgb(0%,75.294118%,80.392157%);fill-opacity:1;" d="M 237.292969 112.3125 L 237.273438 112.3125 C 239.472656 110.019531 238.441406 107.488281 238.039062 106.714844 C 238.039062 106.714844 238.039062 106.710938 238.039062 106.710938 C 237.960938 106.5625 237.90625 106.472656 237.90625 106.472656 L 237.925781 106.476562 C 237.289062 105.222656 236.921875 103.808594 236.921875 102.308594 C 236.921875 99.753906 237.957031 97.441406 239.636719 95.769531 C 241.175781 93.734375 240.007812 91.027344 240.007812 91.027344 L 240.011719 91.027344 C 239.773438 90.347656 239.636719 89.621094 239.636719 88.855469 C 239.636719 85.246094 242.566406 82.320312 246.183594 82.320312 C 249.800781 82.320312 252.734375 85.246094 252.734375 88.855469 C 252.734375 89.621094 252.597656 90.347656 252.355469 91.027344 L 252.359375 91.027344 C 252.359375 91.027344 251.195312 93.734375 252.734375 95.769531 C 254.410156 97.441406 255.445312 99.753906 255.445312 102.308594 C 255.445312 103.808594 255.082031 105.222656 254.445312 106.476562 L 254.453125 106.472656 C 254.453125 106.472656 254.4375 106.492188 254.421875 106.519531 C 254.371094 106.625 254.316406 106.726562 254.261719 106.824219 C 253.847656 107.671875 253.058594 109.9375 254.871094 112.0625 C 254.925781 112.128906 254.984375 112.191406 255.039062 112.257812 C 255.054688 112.277344 255.066406 112.292969 255.082031 112.3125 L 255.078125 112.3125 C 256.644531 114.261719 257.585938 116.730469 257.585938 119.425781 C 257.585938 125.710938 252.480469 130.804688 246.183594 130.804688 C 239.886719 130.804688 234.78125 125.710938 234.78125 119.425781 C 234.78125 116.730469 235.726562 114.261719 237.292969 112.3125 Z M 237.292969 112.3125 "/>
<path style=" stroke:none;fill-rule:nonzero;fill:rgb(0%,61.568627%,69.019608%);fill-opacity:1;" d="M 242.832031 118.453125 L 245.625 121.210938 L 245.625 111.519531 L 242.195312 108.132812 C 242.019531 107.957031 242.015625 107.671875 242.191406 107.492188 C 242.371094 107.316406 242.65625 107.3125 242.832031 107.488281 L 245.625 110.246094 L 245.625 96.878906 C 245.625 96.628906 245.828125 96.425781 246.082031 96.425781 C 246.332031 96.425781 246.53125 96.628906 246.53125 96.878906 L 246.53125 104.933594 L 249.25 102.242188 C 249.425781 102.0625 249.710938 102.0625 249.886719 102.242188 C 250.066406 102.417969 250.066406 102.703125 249.886719 102.882812 L 246.53125 106.210938 L 246.53125 115.941406 L 249.535156 112.917969 C 249.710938 112.738281 249.996094 112.738281 250.175781 112.914062 C 250.351562 113.089844 250.355469 113.375 250.179688 113.550781 L 246.53125 117.226562 L 246.53125 143.046875 C 246.53125 143.296875 246.332031 143.5 246.082031 143.5 C 245.828125 143.5 245.628906 143.296875 245.628906 143.046875 L 245.628906 122.480469 L 242.199219 119.09375 C 242.019531 118.917969 242.019531 118.632812 242.195312 118.453125 C 242.367188 118.277344 242.65625 118.277344 242.832031 118.453125 Z M 242.832031 118.453125 "/>
<path style=" stroke:none;fill-rule:nonzero;fill:rgb(79.215686%,87.45098%,93.72549%);fill-opacity:1;" d="M 255.753906 144 L 237.386719 144 C 237.046875 144 236.769531 143.722656 236.769531 143.382812 C 236.769531 143.042969 237.046875 142.765625 237.386719 142.765625 L 255.753906 142.765625 C 256.09375 142.765625 256.371094 143.042969 256.371094 143.382812 C 256.371094 143.722656 256.09375 144 255.753906 144 Z M 255.753906 144 "/>
<path style=" stroke:none;fill-rule:nonzero;fill:rgb(100%,100%,100%);fill-opacity:1;" d="M 161.988281 9.679688 L 136.476562 9.679688 C 136.476562 9.679688 138.347656 2.035156 144.945312 2.035156 C 149.832031 2.035156 152.371094 5.117188 153.359375 6.71875 C 155.285156 5.964844 159.4375 5.050781 161.988281 9.679688 "/>
<path style=" stroke:none;fill-rule:nonzero;fill:rgb(100%,100%,100%);fill-opacity:1;" d="M 193.078125 16.992188 C 194.332031 16.992188 195.511719 17.332031 196.53125 17.921875 C 198.480469 14.527344 202.078125 12.242188 206.203125 12.242188 C 210.058594 12.242188 213.457031 14.230469 215.476562 17.257812 C 216.542969 13.613281 219.84375 10.953125 223.757812 10.953125 C 228.195312 10.953125 231.851562 14.375 232.34375 18.785156 C 232.699219 18.726562 233.0625 18.6875 233.433594 18.6875 C 236.144531 18.6875 238.492188 20.253906 239.667969 22.546875 L 186.230469 22.546875 C 186.960938 19.363281 189.746094 16.992188 193.078125 16.992188 Z M 193.078125 16.992188 "/>
<path style=" stroke:none;fill-rule:nonzero;fill:rgb(65.490196%,78.431373%,97.647059%);fill-opacity:1;" d="M 211.425781 182.550781 C 211.179688 182.550781 210.941406 182.417969 210.820312 182.1875 L 175.207031 113.464844 C 175.035156 113.132812 175.164062 112.726562 175.496094 112.554688 C 175.832031 112.382812 176.238281 112.511719 176.410156 112.84375 L 212.027344 181.566406 C 212.199219 181.898438 212.070312 182.304688 211.734375 182.476562 C 211.636719 182.527344 211.527344 182.550781 211.425781 182.550781 Z M 211.425781 182.550781 "/>
<path style=" stroke:none;fill-rule:nonzero;fill:rgb(65.490196%,78.431373%,97.647059%);fill-opacity:1;" d="M 224.652344 182.550781 C 224.40625 182.550781 224.167969 182.417969 224.046875 182.1875 L 188.433594 113.464844 C 188.261719 113.132812 188.390625 112.726562 188.722656 112.554688 C 189.058594 112.382812 189.46875 112.511719 189.640625 112.84375 L 225.253906 181.566406 C 225.425781 181.898438 225.296875 182.304688 224.964844 182.476562 C 224.863281 182.527344 224.757812 182.550781 224.652344 182.550781 Z M 224.652344 182.550781 "/>
<path style=" stroke:none;fill-rule:nonzero;fill:rgb(65.490196%,78.431373%,97.647059%);fill-opacity:1;" d="M 220.460938 174.46875 L 207.234375 174.46875 C 206.859375 174.46875 206.554688 174.164062 206.554688 173.789062 C 206.554688 173.414062 206.859375 173.113281 207.234375 173.113281 L 220.460938 173.113281 C 220.835938 173.113281 221.140625 173.414062 221.140625 173.789062 C 221.140625 174.164062 220.835938 174.46875 220.460938 174.46875 Z M 220.460938 174.46875 "/>
<path style=" stroke:none;fill-rule:nonzero;fill:rgb(65.490196%,78.431373%,97.647059%);fill-opacity:1;" d="M 212.441406 159.535156 L 199.550781 159.535156 C 199.175781 159.535156 198.875 159.230469 198.875 158.855469 C 198.875 158.480469 199.175781 158.179688 199.550781 158.179688 L 212.441406 158.179688 C 212.816406 158.179688 213.117188 158.480469 213.117188 158.855469 C 213.121094 159.230469 212.816406 159.535156 212.441406 159.535156 Z M 212.441406 159.535156 "/>
<path style=" stroke:none;fill-rule:nonzero;fill:rgb(65.490196%,78.431373%,97.647059%);fill-opacity:1;" d="M 204.761719 144.597656 L 191.871094 144.597656 C 191.496094 144.597656 191.191406 144.296875 191.191406 143.921875 C 191.191406 143.546875 191.496094 143.246094 191.871094 143.246094 L 204.761719 143.246094 C 205.136719 143.246094 205.4375 143.546875 205.4375 143.921875 C 205.4375 144.296875 205.136719 144.597656 204.761719 144.597656 Z M 204.761719 144.597656 "/>
<path style=" stroke:none;fill-rule:nonzero;fill:rgb(65.490196%,78.431373%,97.647059%);fill-opacity:1;" d="M 197.078125 129.667969 L 184.191406 129.667969 C 183.816406 129.667969 183.511719 129.363281 183.511719 128.988281 C 183.511719 128.613281 183.816406 128.3125 184.191406 128.3125 L 197.078125 128.3125 C 197.453125 128.3125 197.757812 128.613281 197.757812 128.988281 C 197.757812 129.363281 197.453125 129.667969 197.078125 129.667969 Z M 197.078125 129.667969 "/>
<path style=" stroke:none;fill-rule:nonzero;fill:rgb(40.784314%,62.745098%,94.901961%);fill-opacity:1;" d="M 152.066406 182.550781 C 151.960938 182.550781 151.851562 182.527344 151.753906 182.476562 C 151.421875 182.304688 151.292969 181.894531 151.460938 181.566406 L 187.078125 112.84375 C 187.25 112.511719 187.660156 112.382812 187.992188 112.554688 C 188.324219 112.726562 188.453125 113.132812 188.285156 113.464844 L 152.667969 182.1875 C 152.546875 182.417969 152.308594 182.550781 152.066406 182.550781 Z M 152.066406 182.550781 "/>
<path style=" stroke:none;fill-rule:nonzero;fill:rgb(40.784314%,62.745098%,94.901961%);fill-opacity:1;" d="M 138.835938 182.550781 C 138.730469 182.550781 138.625 182.527344 138.527344 182.476562 C 138.191406 182.304688 138.0625 181.894531 138.234375 181.566406 L 173.847656 112.84375 C 174.023438 112.511719 174.429688 112.382812 174.761719 112.554688 C 175.097656 112.726562 175.226562 113.132812 175.054688 113.464844 L 139.441406 182.1875 C 139.320312 182.417969 139.082031 182.550781 138.835938 182.550781 Z M 138.835938 182.550781 "/>
<path style=" stroke:none;fill-rule:nonzero;fill:rgb(40.784314%,62.745098%,94.901961%);fill-opacity:1;" d="M 156.257812 174.46875 L 143.027344 174.46875 C 142.652344 174.46875 142.351562 174.164062 142.351562 173.789062 C 142.351562 173.414062 142.652344 173.113281 143.027344 173.113281 L 156.257812 173.113281 C 156.632812 173.113281 156.933594 173.414062 156.933594 173.789062 C 156.933594 174.164062 156.632812 174.46875 156.257812 174.46875 Z M 156.257812 174.46875 "/>
<path style=" stroke:none;fill-rule:nonzero;fill:rgb(40.784314%,62.745098%,94.901961%);fill-opacity:1;" d="M 163.9375 159.535156 L 151.046875 159.535156 C 150.675781 159.535156 150.371094 159.230469 150.371094 158.855469 C 150.371094 158.480469 150.675781 158.179688 151.046875 158.179688 L 163.9375 158.179688 C 164.3125 158.179688 164.613281 158.480469 164.613281 158.855469 C 164.613281 159.230469 164.3125 159.535156 163.9375 159.535156 Z M 163.9375 159.535156 "/>
<path style=" stroke:none;fill-rule:nonzero;fill:rgb(40.784314%,62.745098%,94.901961%);fill-opacity:1;" d="M 171.617188 144.597656 L 158.730469 144.597656 C 158.355469 144.597656 158.050781 144.296875 158.050781 143.921875 C 158.050781 143.546875 158.355469 143.246094 158.730469 143.246094 L 171.617188 143.246094 C 171.992188 143.246094 172.296875 143.546875 172.296875 143.921875 C 172.296875 144.296875 171.992188 144.597656 171.617188 144.597656 Z M 171.617188 144.597656 "/>
<path style=" stroke:none;fill-rule:nonzero;fill:rgb(40.784314%,62.745098%,94.901961%);fill-opacity:1;" d="M 179.296875 129.667969 L 166.410156 129.667969 C 166.035156 129.667969 165.730469 129.363281 165.730469 128.988281 C 165.730469 128.613281 166.035156 128.3125 166.410156 128.3125 L 179.296875 128.3125 C 179.671875 128.3125 179.976562 128.613281 179.976562 128.988281 C 179.976562 129.363281 179.671875 129.667969 179.296875 129.667969 Z M 179.296875 129.667969 "/>
<path style=" stroke:none;fill-rule:nonzero;fill:rgb(12.941176%,29.019608%,50.588235%);fill-opacity:1;" d="M 190.445312 113.15625 L 173.042969 113.15625 C 172.511719 113.15625 172.078125 112.722656 172.078125 112.191406 L 172.078125 110.734375 C 172.078125 110.203125 172.511719 109.769531 173.042969 109.769531 L 190.445312 109.769531 C 190.976562 109.769531 191.410156 110.203125 191.410156 110.734375 L 191.410156 112.191406 C 191.410156 112.722656 190.980469 113.15625 190.445312 113.15625 Z M 190.445312 113.15625 "/>
<path style=" stroke:none;fill-rule:nonzero;fill:rgb(84.313725%,90.980392%,96.862745%);fill-opacity:1;" d="M 116.066406 74.335938 C 116.066406 70.402344 112.871094 67.214844 108.929688 67.214844 C 104.988281 67.214844 101.796875 70.402344 101.796875 74.335938 C 101.796875 78.269531 104.988281 81.457031 108.929688 81.457031 C 112.871094 81.457031 116.066406 78.269531 116.066406 74.335938 Z M 116.066406 74.335938 "/>
<path style=" stroke:none;fill-rule:nonzero;fill:rgb(84.313725%,90.980392%,96.862745%);fill-opacity:1;" d="M 203.632812 74.925781 C 203.632812 79.460938 199.945312 83.144531 195.398438 83.144531 C 190.851562 83.144531 187.164062 79.460938 187.164062 74.925781 C 187.164062 70.386719 190.851562 66.707031 195.398438 66.707031 C 199.945312 66.707031 203.632812 70.386719 203.632812 74.925781 Z M 203.632812 74.925781 "/>
<path style=" stroke:none;fill-rule:nonzero;fill:rgb(53.333333%,47.058824%,97.647059%);fill-opacity:1;" d="M 203.949219 72.058594 C 203.949219 67.519531 200.261719 63.839844 195.714844 63.839844 C 191.167969 63.839844 187.480469 67.519531 187.480469 72.058594 C 187.480469 76.597656 191.167969 80.277344 195.714844 80.277344 C 200.261719 80.277344 203.949219 76.597656 203.949219 72.058594 Z M 203.949219 72.058594 "/>
<path style=" stroke:none;fill-rule:nonzero;fill:rgb(53.333333%,47.058824%,97.647059%);fill-opacity:1;" d="M 79.308594 117.414062 L 33.363281 138 C 32.625 138.328125 31.757812 138 31.425781 137.265625 L 22.785156 118.054688 C 22.457031 117.320312 22.785156 116.453125 23.523438 116.125 L 69.46875 95.539062 C 70.207031 95.207031 71.070312 95.535156 71.402344 96.273438 L 80.042969 115.480469 C 80.375 116.21875 80.046875 117.082031 79.308594 117.414062 Z M 79.308594 117.414062 "/>
<path style=" stroke:none;fill-rule:nonzero;fill:rgb(85.490196%,91.764706%,100%);fill-opacity:1;" d="M 69.429688 116.230469 L 55.757812 122.355469 C 55.425781 122.503906 55.035156 122.355469 54.886719 122.023438 L 49.984375 111.121094 C 49.835938 110.789062 49.984375 110.402344 50.316406 110.253906 L 63.984375 104.128906 C 64.316406 103.980469 64.707031 104.125 64.855469 104.457031 L 69.761719 115.363281 C 69.910156 115.691406 69.761719 116.082031 69.429688 116.230469 Z M 69.429688 116.230469 "/>
<path style=" stroke:none;fill-rule:nonzero;fill:rgb(85.490196%,91.764706%,100%);fill-opacity:1;" d="M 46.132812 119.132812 C 47.621094 122.484375 46.105469 126.402344 42.75 127.886719 C 39.390625 129.375 35.464844 127.863281 33.976562 124.511719 C 32.488281 121.160156 34.003906 117.242188 37.363281 115.757812 C 40.71875 114.273438 44.644531 115.785156 46.132812 119.132812 Z M 46.132812 119.132812 "/>
<path style=" stroke:none;fill-rule:nonzero;fill:rgb(100%,74.117647%,63.137255%);fill-opacity:1;" d="M 69.4375 123.042969 C 69.4375 124.136719 68.546875 125.023438 67.453125 125.023438 C 66.355469 125.023438 65.46875 124.136719 65.46875 123.042969 C 65.46875 121.949219 66.355469 121.0625 67.453125 121.0625 C 68.546875 121.0625 69.4375 121.949219 69.4375 123.042969 Z M 69.4375 123.042969 "/>
<path style=" stroke:none;fill-rule:nonzero;fill:rgb(100%,74.117647%,63.137255%);fill-opacity:1;" d="M 40.292969 151.261719 C 40.292969 150.167969 39.402344 149.28125 38.308594 149.28125 C 37.210938 149.28125 36.324219 150.167969 36.324219 151.261719 C 36.324219 152.355469 37.210938 153.242188 38.308594 153.242188 C 39.402344 153.242188 40.292969 152.355469 40.292969 151.261719 Z M 40.292969 151.261719 "/>
<path style=" stroke:none;fill-rule:nonzero;fill:rgb(100%,74.117647%,63.137255%);fill-opacity:1;" d="M 65.417969 181.007812 C 65.457031 180.765625 65.457031 173.867188 65.457031 173.867188 L 68.664062 173.867188 L 68.664062 181.011719 Z M 65.417969 181.007812 "/>
<path style=" stroke:none;fill-rule:nonzero;fill:rgb(11.764706%,10.196078%,11.764706%);fill-opacity:1;" d="M 74.371094 182.351562 L 65.417969 182.390625 L 65.417969 179.648438 L 71.601562 179.621094 C 73.121094 179.613281 74.359375 180.835938 74.371094 182.351562 Z M 74.371094 182.351562 "/>
<path style=" stroke:none;fill-rule:nonzero;fill:rgb(100%,74.117647%,63.137255%);fill-opacity:1;" d="M 33.40625 173.433594 C 33.632812 173.332031 39.355469 169.46875 39.355469 169.46875 L 41.152344 172.121094 L 35.222656 176.121094 Z M 33.40625 173.433594 "/>
<path style=" stroke:none;fill-rule:nonzero;fill:rgb(11.764706%,10.196078%,11.764706%);fill-opacity:1;" d="M 37.304688 181.589844 L 32.257812 174.207031 L 34.535156 172.671875 L 38.019531 177.769531 C 38.878906 179.023438 38.558594 180.734375 37.304688 181.589844 Z M 37.304688 181.589844 "/>
<path style=" stroke:none;fill-rule:nonzero;fill:rgb(100%,74.117647%,63.137255%);fill-opacity:1;" d="M 59.964844 121.351562 L 58.980469 120.933594 L 58.421875 122.226562 L 59.371094 122.453125 L 60.015625 122.0625 C 60.292969 121.890625 60.261719 121.480469 59.964844 121.351562 Z M 59.964844 121.351562 "/>
<path style=" stroke:none;fill-rule:nonzero;fill:rgb(100%,74.117647%,63.137255%);fill-opacity:1;" d="M 59.382812 123.398438 C 58.832031 125.6875 56.53125 127.097656 54.238281 126.546875 C 51.945312 126 50.535156 123.703125 51.082031 121.414062 C 51.632812 119.125 53.9375 117.714844 56.226562 118.265625 C 58.519531 118.8125 59.933594 121.113281 59.382812 123.398438 Z M 59.382812 123.398438 "/>
<g clip-path="url(#clip1)" clip-rule="nonzero">
<g clip-path="url(#clip2)" clip-rule="nonzero">
<path style=" stroke:none;fill-rule:nonzero;fill:rgb(2.745098%,12.54902%,25.882353%);fill-opacity:1;" d="M 56.671875 117.019531 L 51.667969 127.148438 L 49.730469 119.945312 Z M 56.671875 117.019531 "/>
</g>
</g>
<path style=" stroke:none;fill-rule:nonzero;fill:rgb(100%,74.117647%,63.137255%);fill-opacity:1;" d="M 54.523438 122.617188 C 54.367188 123.257812 53.722656 123.652344 53.082031 123.5 C 52.441406 123.347656 52.042969 122.703125 52.195312 122.0625 C 52.351562 121.421875 52.996094 121.027344 53.636719 121.179688 C 54.28125 121.332031 54.675781 121.976562 54.523438 122.617188 Z M 54.523438 122.617188 "/>
<path style=" stroke:none;fill-rule:nonzero;fill:rgb(2.745098%,12.54902%,25.882353%);fill-opacity:1;" d="M 51.410156 125.25 C 50.457031 127.078125 48.203125 127.789062 46.375 126.839844 C 44.542969 125.894531 43.832031 123.644531 44.78125 121.816406 C 45.730469 119.988281 47.984375 119.277344 49.816406 120.226562 C 51.644531 121.171875 52.359375 123.421875 51.410156 125.25 Z M 51.410156 125.25 "/>
<path style=" stroke:none;fill-rule:nonzero;fill:rgb(100%,74.117647%,63.137255%);fill-opacity:1;" d="M 56.820312 126.089844 C 56.820312 126.335938 56.820312 132 56.820312 132 L 53.117188 129.539062 L 53.519531 125.953125 Z M 56.820312 126.089844 "/>
<path style=" stroke:none;fill-rule:nonzero;fill:rgb(5.490196%,17.254902%,34.509804%);fill-opacity:1;" d="M 54.042969 150.472656 L 54.167969 150.472656 C 57.542969 150.472656 60.277344 147.742188 60.277344 144.375 L 60.277344 144.070312 L 47.9375 144.070312 L 47.9375 144.375 C 47.9375 147.742188 50.671875 150.472656 54.042969 150.472656 Z M 54.042969 150.472656 "/>
<path style=" stroke:none;fill-rule:nonzero;fill:rgb(5.490196%,17.254902%,34.509804%);fill-opacity:1;" d="M 53.460938 148.136719 L 58.03125 155.039062 L 60.316406 158.492188 L 60.878906 159.339844 C 60.917969 159.402344 60.976562 159.488281 61.027344 159.582031 C 61.078125 159.667969 61.128906 159.757812 61.171875 159.851562 C 61.355469 160.214844 61.5 160.605469 61.59375 161.007812 C 61.613281 161.109375 61.636719 161.210938 61.65625 161.3125 L 61.667969 161.390625 L 61.683594 161.507812 L 61.71875 161.765625 L 61.859375 162.792969 L 62.140625 164.84375 L 62.707031 168.953125 L 63.832031 177.167969 L 70.046875 176.480469 L 69.335938 168.21875 L 68.980469 164.085938 L 68.804688 162.023438 L 68.714844 160.988281 L 68.695312 160.730469 L 68.664062 160.410156 C 68.636719 160.167969 68.605469 159.933594 68.5625 159.691406 C 68.398438 158.738281 68.121094 157.800781 67.738281 156.90625 C 67.644531 156.683594 67.542969 156.460938 67.433594 156.242188 C 67.324219 156.027344 67.210938 155.816406 67.074219 155.578125 L 66.535156 154.671875 L 64.417969 151.09375 L 60.183594 143.941406 Z M 53.460938 148.136719 "/>
<path style=" stroke:none;fill-rule:nonzero;fill:rgb(5.490196%,17.254902%,34.509804%);fill-opacity:1;" d="M 47.929688 144.28125 L 47.597656 152.667969 L 47.441406 156.863281 L 47.363281 158.964844 L 47.324219 160.011719 L 47.3125 160.242188 C 47.3125 160.273438 47.3125 160.304688 47.3125 160.332031 C 47.304688 160.40625 47.300781 160.484375 47.289062 160.554688 C 47.25 160.855469 47.152344 161.152344 47.003906 161.425781 C 46.929688 161.5625 46.847656 161.695312 46.746094 161.816406 C 46.644531 161.945312 46.546875 162.046875 46.410156 162.171875 L 43.15625 164.847656 C 40.988281 166.636719 38.828125 168.433594 36.679688 170.238281 L 39.949219 174.542969 C 42.269531 172.964844 44.585938 171.375 46.894531 169.773438 L 50.351562 167.375 C 52.097656 166.136719 53.4375 164.21875 53.964844 162.085938 C 54.035156 161.820312 54.085938 161.550781 54.136719 161.277344 L 54.195312 160.84375 L 54.226562 160.554688 L 54.335938 159.507812 L 54.554688 157.410156 L 54.988281 153.21875 L 55.839844 144.839844 Z M 47.929688 144.28125 "/>
<path style=" stroke:none;fill-rule:nonzero;fill:rgb(100%,83.921569%,45.098039%);fill-opacity:1;" d="M 73.652344 131.089844 L 70.195312 123.453125 L 66.148438 125.277344 L 68.160156 129.722656 L 60.757812 129.585938 L 60.757812 129.539062 L 52.988281 129.539062 C 51.550781 129.539062 50.261719 130.144531 49.339844 131.105469 C 49.082031 131.300781 48.835938 131.519531 48.617188 131.777344 L 41.5 138.179688 C 41.347656 138.359375 41.226562 138.566406 41.136719 138.785156 L 36.941406 149.183594 L 41.0625 150.839844 L 45.125 140.769531 L 47.9375 138.023438 L 47.9375 144.316406 L 59.289062 144.316406 C 60.101562 144.316406 60.757812 143.65625 60.757812 142.847656 L 60.757812 134.019531 L 71.585938 134.214844 C 71.597656 134.214844 71.613281 134.214844 71.625 134.214844 C 72.375 134.214844 73.070312 133.84375 73.480469 133.21875 C 73.898438 132.585938 73.964844 131.78125 73.652344 131.089844 Z M 73.652344 131.089844 "/>
<path style=" stroke:none;fill-rule:nonzero;fill:rgb(100%,74.117647%,63.137255%);fill-opacity:1;" d="M 193.257812 79.027344 C 193.296875 80.082031 192.472656 80.972656 191.410156 81.011719 C 190.351562 81.050781 189.464844 80.222656 189.425781 79.167969 C 189.382812 78.109375 190.210938 77.222656 191.269531 77.183594 C 192.328125 77.144531 193.21875 77.96875 193.257812 79.027344 Z M 193.257812 79.027344 "/>
<path style=" stroke:none;fill-rule:nonzero;fill:rgb(100%,74.117647%,63.137255%);fill-opacity:1;" d="M 143.652344 119.171875 C 143.652344 120.230469 142.792969 121.085938 141.734375 121.085938 C 140.671875 121.085938 139.8125 120.230469 139.8125 119.171875 C 139.8125 118.117188 140.671875 117.257812 141.734375 117.257812 C 142.792969 117.257812 143.652344 118.117188 143.652344 119.171875 Z M 143.652344 119.171875 "/>
<path style=" stroke:none;fill-rule:nonzero;fill:rgb(100%,74.117647%,63.137255%);fill-opacity:1;" d="M 143.246094 119.195312 L 141.402344 117.871094 L 144.058594 114.183594 L 145.902344 115.511719 Z M 143.246094 119.195312 "/>
<path style=" stroke:none;fill-rule:nonzero;fill:rgb(100%,74.117647%,63.137255%);fill-opacity:1;" d="M 163.445312 87.539062 L 163.90625 94.527344 L 167.5 93.675781 L 167.035156 87.257812 Z M 163.445312 87.539062 "/>
<path style=" stroke:none;fill-rule:nonzero;fill:rgb(100%,83.137255%,45.490196%);fill-opacity:1;" d="M 172.925781 105.464844 L 172.925781 92.71875 C 172.925781 91.363281 171.636719 90.378906 170.324219 90.734375 L 166.769531 91.703125 C 165.664062 92 164.59375 92.40625 163.566406 92.90625 L 159.871094 94.707031 C 159.335938 94.96875 159 95.507812 159 96.101562 L 159 107.855469 Z M 172.925781 105.464844 "/>
<path style=" stroke:none;fill-rule:nonzero;fill:rgb(100%,83.137255%,45.490196%);fill-opacity:1;" d="M 170.578125 94.785156 L 169.589844 90.941406 L 181.199219 87.976562 L 188.746094 79.097656 L 191.78125 81.667969 L 183.824219 91.027344 C 183.554688 91.339844 183.199219 91.5625 182.800781 91.667969 Z M 170.578125 94.785156 "/>
<path style=" stroke:none;fill-rule:nonzero;fill:rgb(100%,83.137255%,45.490196%);fill-opacity:1;" d="M 144.671875 118.453125 L 141.496094 116.0625 L 150.308594 104.429688 C 150.355469 104.367188 150.410156 104.304688 150.464844 104.246094 L 159.546875 94.921875 L 162.417969 97.648438 L 153.40625 106.921875 Z M 144.671875 118.453125 "/>
<path style=" stroke:none;fill-rule:nonzero;fill:rgb(100%,74.117647%,63.137255%);fill-opacity:1;" d="M 162.492188 140.339844 L 164.96875 135.410156 L 167.882812 135.410156 L 165.324219 140.519531 Z M 162.492188 140.339844 "/>
<path style=" stroke:none;fill-rule:nonzero;fill:rgb(11.764706%,10.196078%,11.764706%);fill-opacity:1;" d="M 171.847656 143.226562 L 162.339844 143.269531 L 162.339844 140.355469 L 168.90625 140.328125 C 170.519531 140.316406 171.835938 141.613281 171.847656 143.226562 Z M 171.847656 143.226562 "/>
<path style=" stroke:none;fill-rule:nonzero;fill:rgb(100%,74.117647%,63.137255%);fill-opacity:1;" d="M 148.546875 141.871094 L 150.722656 137.257812 L 153.308594 138.148438 L 150.613281 143.8125 Z M 148.546875 141.871094 "/>
<path style=" stroke:none;fill-rule:nonzero;fill:rgb(1.176471%,20.392157%,37.254902%);fill-opacity:1;" d="M 159 107.507812 L 159 108.152344 C 159 111.964844 162.941406 112.339844 167.222656 111.648438 C 170.527344 111.117188 172.925781 109.511719 172.925781 106.566406 L 172.925781 105.464844 Z M 159 107.507812 "/>
<path style=" stroke:none;fill-rule:nonzero;fill:rgb(1.176471%,20.392157%,37.254902%);fill-opacity:1;" d="M 167.035156 106.976562 L 162.335938 124.316406 L 162.253906 124.613281 C 162.207031 124.785156 162.136719 124.957031 162.054688 125.105469 L 153.667969 139.648438 L 148.714844 138.5625 L 157.082031 122.460938 L 156.800781 123.25 L 159 107.507812 Z M 167.035156 106.976562 "/>
<path style=" stroke:none;fill-rule:nonzero;fill:rgb(1.176471%,20.392157%,37.254902%);fill-opacity:1;" d="M 172.925781 105.464844 L 175.5625 120.996094 L 175.605469 121.28125 C 175.679688 121.808594 175.601562 122.328125 175.40625 122.78125 L 168.519531 137.257812 L 163.082031 136.988281 L 170.164062 120.527344 L 170.007812 122.3125 L 165.109375 107.621094 Z M 172.925781 105.464844 "/>
<path style=" stroke:none;fill-rule:nonzero;fill:rgb(100%,83.137255%,45.490196%);fill-opacity:1;" d="M 162.027344 93.65625 C 162.027344 93.65625 163.214844 89.734375 168.386719 91.15625 Z M 162.027344 93.65625 "/>
<path style=" stroke:none;fill-rule:nonzero;fill:rgb(100%,74.117647%,63.137255%);fill-opacity:1;" d="M 160.484375 87.097656 C 161.109375 87.042969 161.574219 86.496094 161.519531 85.875 C 161.46875 85.25 160.921875 84.789062 160.296875 84.839844 C 159.671875 84.894531 159.207031 85.441406 159.261719 86.0625 C 159.3125 86.6875 159.859375 87.148438 160.484375 87.097656 Z M 160.484375 87.097656 "/>
<path style=" stroke:none;fill-rule:nonzero;fill:rgb(100%,74.117647%,63.137255%);fill-opacity:1;" d="M 170.601562 85.125 C 170.652344 85.75 170.1875 86.296875 169.566406 86.347656 C 168.941406 86.398438 168.390625 85.9375 168.339844 85.316406 C 168.289062 84.691406 168.753906 84.144531 169.375 84.09375 C 170 84.039062 170.550781 84.503906 170.601562 85.125 Z M 170.601562 85.125 "/>
<path style=" stroke:none;fill-rule:nonzero;fill:rgb(2.745098%,12.54902%,25.882353%);fill-opacity:1;" d="M 169.488281 84.238281 C 169.703125 86.800781 167.796875 89.050781 165.234375 89.261719 C 162.667969 89.476562 160.414062 87.574219 160.199219 85.015625 C 159.984375 82.453125 161.890625 80.203125 164.457031 79.992188 C 167.019531 79.777344 169.273438 81.679688 169.488281 84.238281 Z M 169.488281 84.238281 "/>
<path style=" stroke:none;fill-rule:nonzero;fill:rgb(11.764706%,10.196078%,11.764706%);fill-opacity:1;" d="M 149.675781 149.804688 C 148.621094 149.804688 147.765625 148.949219 147.765625 147.898438 L 147.765625 142.386719 C 147.765625 141.332031 148.621094 140.480469 149.675781 140.480469 C 150.734375 140.480469 151.589844 141.332031 151.589844 142.386719 L 151.589844 147.898438 C 151.589844 148.949219 150.734375 149.804688 149.675781 149.804688 Z M 149.675781 149.804688 "/>
<path style=" stroke:none;fill-rule:nonzero;fill:rgb(53.333333%,47.058824%,97.647059%);fill-opacity:1;" d="M 80.171875 79.519531 C 80.171875 81.203125 79.136719 82.566406 77.863281 82.566406 L 44.230469 82.566406 C 42.957031 82.566406 41.921875 81.203125 41.921875 79.519531 L 41.921875 56.167969 C 41.921875 54.484375 42.957031 53.121094 44.230469 53.121094 L 77.863281 53.121094 C 79.136719 53.121094 80.171875 54.484375 80.171875 56.167969 Z M 80.171875 79.519531 "/>
<path style=" stroke:none;fill-rule:nonzero;fill:rgb(0%,75.294118%,80.392157%);fill-opacity:1;" d="M 196.761719 212.984375 C 196.761719 220.164062 190.929688 225.984375 183.738281 225.984375 C 176.542969 225.984375 170.714844 220.164062 170.714844 212.984375 C 170.714844 209.910156 171.789062 207.085938 173.578125 204.859375 L 173.558594 204.859375 C 176.070312 202.242188 174.890625 199.347656 174.433594 198.46875 C 174.433594 198.464844 174.433594 198.464844 174.433594 198.464844 C 174.34375 198.292969 174.28125 198.191406 174.28125 198.191406 L 174.304688 198.199219 C 173.574219 196.765625 173.15625 195.148438 173.15625 193.433594 C 173.15625 190.519531 174.339844 187.878906 176.257812 185.964844 C 178.015625 183.644531 176.683594 180.550781 176.683594 180.550781 L 176.6875 180.550781 C 176.414062 179.773438 176.257812 178.941406 176.257812 178.070312 C 176.257812 173.945312 179.605469 170.605469 183.738281 170.605469 C 187.871094 170.605469 191.21875 173.945312 191.21875 178.070312 C 191.21875 178.941406 191.0625 179.773438 190.789062 180.550781 L 190.792969 180.550781 C 190.792969 180.550781 189.460938 183.644531 191.21875 185.964844 C 193.132812 187.878906 194.320312 190.519531 194.320312 193.433594 C 194.320312 195.148438 193.902344 196.761719 193.175781 198.195312 L 193.179688 198.191406 C 193.179688 198.191406 193.167969 198.214844 193.148438 198.246094 C 193.089844 198.363281 193.027344 198.480469 192.964844 198.59375 C 192.496094 199.5625 191.589844 202.152344 193.660156 204.574219 C 193.722656 204.648438 193.789062 204.722656 193.851562 204.800781 C 193.871094 204.820312 193.882812 204.839844 193.902344 204.859375 L 193.894531 204.859375 C 195.683594 207.085938 196.761719 209.910156 196.761719 212.984375 "/>
<path style=" stroke:none;fill-rule:nonzero;fill:rgb(0%,61.568627%,69.019608%);fill-opacity:1;" d="M 179.910156 211.875 L 183.097656 215.023438 L 183.097656 203.953125 L 179.179688 200.085938 C 178.976562 199.886719 178.976562 199.558594 179.175781 199.355469 C 179.378906 199.152344 179.707031 199.152344 179.910156 199.351562 L 183.097656 202.5 L 183.097656 187.234375 C 183.097656 186.949219 183.332031 186.71875 183.617188 186.71875 C 183.902344 186.71875 184.132812 186.949219 184.132812 187.234375 L 184.132812 196.433594 L 187.238281 193.355469 C 187.4375 193.15625 187.765625 193.15625 187.96875 193.359375 C 188.167969 193.5625 188.167969 193.886719 187.964844 194.089844 L 184.132812 197.890625 L 184.132812 209.007812 L 187.5625 205.550781 C 187.761719 205.347656 188.089844 205.347656 188.292969 205.546875 C 188.496094 205.75 188.5 206.074219 188.296875 206.277344 L 184.132812 210.476562 L 184.132812 239.96875 C 184.132812 240.253906 183.902344 240.484375 183.617188 240.484375 C 183.332031 240.484375 183.097656 240.253906 183.097656 239.96875 L 183.097656 216.476562 L 179.179688 212.609375 C 178.976562 212.40625 178.976562 212.082031 179.175781 211.878906 C 179.378906 211.675781 179.707031 211.671875 179.910156 211.875 Z M 179.910156 211.875 "/>
<path style=" stroke:none;fill-rule:nonzero;fill:rgb(0%,75.294118%,80.392157%);fill-opacity:1;" d="M 17.476562 60.4375 C 17.476562 64.609375 14.089844 67.988281 9.914062 67.988281 C 5.734375 67.988281 2.347656 64.609375 2.347656 60.4375 C 2.347656 58.652344 2.972656 57.011719 4.011719 55.71875 L 4 55.71875 C 5.460938 54.199219 4.773438 52.515625 4.507812 52.003906 C 4.457031 51.902344 4.421875 51.84375 4.421875 51.84375 L 4.433594 51.847656 C 4.011719 51.015625 3.765625 50.078125 3.765625 49.082031 C 3.765625 47.386719 4.453125 45.851562 5.566406 44.742188 C 6.589844 43.394531 5.816406 41.597656 5.816406 41.597656 C 5.660156 41.144531 5.566406 40.664062 5.566406 40.15625 C 5.566406 37.761719 7.511719 35.820312 9.914062 35.820312 C 12.3125 35.820312 14.257812 37.761719 14.257812 40.15625 C 14.257812 40.664062 14.167969 41.148438 14.007812 41.597656 L 14.011719 41.597656 C 14.011719 41.597656 13.238281 43.394531 14.257812 44.742188 C 15.371094 45.855469 16.058594 47.386719 16.058594 49.082031 C 16.058594 50.078125 15.816406 51.015625 15.394531 51.847656 L 15.398438 51.84375 C 15.398438 51.84375 15.390625 51.855469 15.378906 51.875 C 15.34375 51.945312 15.308594 52.011719 15.273438 52.078125 C 15 52.640625 14.472656 54.144531 15.675781 55.550781 C 15.710938 55.597656 15.75 55.640625 15.785156 55.683594 C 15.796875 55.695312 15.804688 55.707031 15.816406 55.71875 L 15.8125 55.71875 C 16.851562 57.011719 17.476562 58.652344 17.476562 60.4375 "/>
<path style=" stroke:none;fill-rule:nonzero;fill:rgb(0%,61.568627%,69.019608%);fill-opacity:1;" d="M 7.6875 59.792969 L 9.542969 61.621094 L 9.542969 55.191406 L 7.265625 52.945312 C 7.148438 52.828125 7.148438 52.640625 7.261719 52.519531 C 7.378906 52.402344 7.570312 52.402344 7.6875 52.519531 L 9.542969 54.347656 L 9.542969 45.480469 C 9.542969 45.3125 9.675781 45.179688 9.84375 45.179688 C 10.007812 45.179688 10.140625 45.3125 10.140625 45.480469 L 10.140625 50.824219 L 11.945312 49.035156 C 12.0625 48.921875 12.253906 48.921875 12.367188 49.039062 C 12.484375 49.15625 12.484375 49.34375 12.367188 49.460938 L 10.140625 51.671875 L 10.140625 58.128906 L 12.132812 56.121094 C 12.25 56.003906 12.441406 56 12.558594 56.117188 C 12.675781 56.234375 12.679688 56.425781 12.5625 56.542969 L 10.140625 58.980469 L 10.140625 76.113281 C 10.140625 76.277344 10.007812 76.410156 9.839844 76.410156 C 9.675781 76.410156 9.539062 76.277344 9.539062 76.113281 L 9.539062 62.464844 L 7.265625 60.21875 C 7.148438 60.101562 7.144531 59.914062 7.261719 59.796875 C 7.378906 59.675781 7.570312 59.675781 7.6875 59.792969 Z M 7.6875 59.792969 "/>
<path style=" stroke:none;fill-rule:nonzero;fill:rgb(100%,83.921569%,45.098039%);fill-opacity:1;" d="M 97.027344 169.832031 L 96.816406 169.222656 L 96.601562 169.832031 C 96.421875 170.347656 95.996094 170.78125 95.421875 171.035156 C 95.996094 171.292969 96.421875 171.726562 96.601562 172.238281 L 96.816406 172.847656 L 97.027344 172.238281 C 97.207031 171.726562 97.632812 171.292969 98.210938 171.035156 C 97.632812 170.78125 97.207031 170.347656 97.027344 169.832031 Z M 97.027344 169.832031 "/>
<path style=" stroke:none;fill-rule:nonzero;fill:rgb(100%,83.921569%,45.098039%);fill-opacity:1;" d="M 77.808594 204.667969 L 77.59375 204.058594 L 77.382812 204.667969 C 77.203125 205.183594 76.777344 205.617188 76.199219 205.871094 C 76.777344 206.128906 77.203125 206.5625 77.382812 207.078125 L 77.59375 207.6875 L 77.808594 207.078125 C 77.988281 206.5625 78.414062 206.128906 78.988281 205.871094 C 78.414062 205.617188 77.988281 205.183594 77.808594 204.667969 Z M 77.808594 204.667969 "/>
<path style=" stroke:none;fill-rule:nonzero;fill:rgb(100%,83.921569%,45.098039%);fill-opacity:1;" d="M 135.429688 201 L 135.289062 200.597656 L 135.148438 201 C 135.03125 201.339844 134.75 201.625 134.367188 201.792969 C 134.75 201.960938 135.03125 202.25 135.148438 202.585938 L 135.289062 202.988281 L 135.429688 202.585938 C 135.546875 202.25 135.828125 201.960938 136.207031 201.792969 C 135.828125 201.625 135.546875 201.335938 135.429688 201 Z M 135.429688 201 "/>
<path style=" stroke:none;fill-rule:nonzero;fill:rgb(100%,83.921569%,45.098039%);fill-opacity:1;" d="M 68.519531 180.777344 L 68.378906 180.375 L 68.238281 180.777344 C 68.121094 181.117188 67.839844 181.402344 67.457031 181.570312 C 67.839844 181.738281 68.121094 182.023438 68.238281 182.363281 L 68.378906 182.765625 L 68.519531 182.363281 C 68.636719 182.023438 68.917969 181.738281 69.296875 181.570312 C 68.917969 181.402344 68.636719 181.117188 68.519531 180.777344 Z M 68.519531 180.777344 "/>
<path style=" stroke:none;fill-rule:nonzero;fill:rgb(77.254902%,78.823529%,90.196078%);fill-opacity:1;" d="M 105.789062 209.605469 L 121.21875 209.605469 C 124.316406 209.605469 126.914062 207.273438 127.253906 204.195312 L 129.476562 181.03125 L 114.058594 181.03125 L 113.742188 194.460938 Z M 105.789062 209.605469 "/>
<path style=" stroke:none;fill-rule:nonzero;fill:rgb(23.921569%,25.490196%,35.686275%);fill-opacity:1;" d="M 105.789062 209.5 C 105.789062 209.5 106.535156 209.488281 107.835938 209.46875 C 108.484375 209.460938 109.273438 209.449219 110.179688 209.4375 C 111.085938 209.429688 112.105469 209.421875 113.222656 209.410156 C 114.335938 209.402344 115.542969 209.390625 116.820312 209.382812 C 118.097656 209.375 119.445312 209.371094 120.839844 209.367188 L 121.101562 209.367188 L 121.222656 209.363281 L 121.351562 209.359375 C 121.523438 209.34375 121.710938 209.347656 121.875 209.324219 C 122.039062 209.292969 122.203125 209.28125 122.371094 209.246094 C 122.535156 209.203125 122.703125 209.167969 122.867188 209.121094 C 123.527344 208.925781 124.160156 208.605469 124.71875 208.179688 C 125.839844 207.335938 126.65625 206.058594 126.925781 204.65625 C 126.953125 204.480469 126.984375 204.304688 127.007812 204.132812 L 127.058594 203.578125 C 127.09375 203.207031 127.132812 202.835938 127.167969 202.46875 C 127.238281 201.730469 127.308594 201 127.378906 200.269531 C 127.519531 198.8125 127.660156 197.378906 127.796875 195.992188 C 128.074219 193.21875 128.335938 190.628906 128.558594 188.410156 C 129.019531 183.972656 129.328125 181.019531 129.328125 181.019531 C 129.335938 180.933594 129.410156 180.875 129.492188 180.886719 C 129.574219 180.894531 129.632812 180.964844 129.625 181.046875 C 129.625 181.046875 129.367188 184.007812 128.976562 188.453125 C 128.769531 190.671875 128.535156 193.261719 128.28125 196.039062 C 128.148438 197.425781 128.011719 198.859375 127.875 200.316406 C 127.804688 201.046875 127.734375 201.78125 127.664062 202.519531 C 127.628906 202.886719 127.597656 203.253906 127.558594 203.625 L 127.507812 204.179688 C 127.480469 204.375 127.449219 204.5625 127.421875 204.753906 C 127.128906 206.277344 126.246094 207.675781 125.023438 208.585938 C 124.414062 209.042969 123.726562 209.382812 123.007812 209.59375 C 122.828125 209.644531 122.644531 209.679688 122.464844 209.722656 C 122.285156 209.761719 122.09375 209.78125 121.910156 209.808594 C 121.722656 209.835938 121.554688 209.828125 121.375 209.839844 L 121.242188 209.847656 L 120.839844 209.847656 C 119.445312 209.839844 118.101562 209.835938 116.824219 209.832031 C 115.542969 209.820312 114.335938 209.8125 113.222656 209.800781 C 112.109375 209.792969 111.085938 209.78125 110.179688 209.773438 C 109.273438 209.761719 108.484375 209.75 107.835938 209.742188 C 106.535156 209.722656 105.789062 209.710938 105.789062 209.710938 C 105.734375 209.710938 105.6875 209.664062 105.6875 209.605469 C 105.6875 209.546875 105.734375 209.5 105.789062 209.5 Z M 105.789062 209.5 "/>
<path style="fill:none;stroke-width:2;stroke-linecap:butt;stroke-linejoin:miter;stroke:rgb(53.333333%,47.058824%,97.647059%);stroke-opacity:1;stroke-miterlimit:10;" d="M 595.548242 1091.155422 L 595.548242 1176.140989 " transform="matrix(0.19245,0,0,0.192496,0,0)"/>
<path style=" stroke:none;fill-rule:nonzero;fill:rgb(53.333333%,47.058824%,97.647059%);fill-opacity:1;" d="M 67.792969 194.714844 L 117.527344 194.714844 L 117.527344 195.488281 L 67.792969 195.488281 Z M 67.792969 194.714844 "/>
<path style=" stroke:none;fill-rule:nonzero;fill:rgb(89.019608%,73.72549%,60.392157%);fill-opacity:1;" d="M 111.660156 229.488281 L 112.1875 231.382812 L 109.617188 232.160156 L 108.816406 229.824219 Z M 111.660156 229.488281 "/>
<path style=" stroke:none;fill-rule:nonzero;fill:rgb(89.019608%,73.72549%,60.392157%);fill-opacity:1;" d="M 96.144531 228.117188 L 96.144531 229.636719 L 98.421875 229.636719 L 98.675781 228.117188 Z M 96.144531 228.117188 "/>
<path style=" stroke:none;fill-rule:nonzero;fill:rgb(84.705882%,67.45098%,53.72549%);fill-opacity:1;" d="M 113.621094 184.15625 L 110.183594 192.640625 L 110.109375 192.828125 C 109.902344 193.332031 109.414062 193.636719 108.902344 193.632812 L 99.117188 193.566406 C 98.71875 193.5625 98.402344 193.238281 98.40625 192.84375 C 98.40625 192.484375 98.671875 192.1875 99.019531 192.140625 L 108.699219 190.722656 L 107.417969 191.722656 L 109.730469 182.863281 C 110.015625 181.765625 111.140625 181.109375 112.238281 181.394531 C 113.335938 181.679688 113.992188 182.804688 113.707031 183.902344 C 113.683594 183.984375 113.652344 184.078125 113.621094 184.15625 Z M 113.621094 184.15625 "/>
<path style=" stroke:none;fill-rule:nonzero;fill:rgb(84.705882%,67.45098%,53.72549%);fill-opacity:1;" d="M 100.179688 191.96875 L 96.835938 191.902344 C 96.011719 191.902344 95.339844 192.648438 95.339844 193.566406 L 100.222656 193.566406 Z M 100.179688 191.96875 "/>
<path style=" stroke:none;fill-rule:nonzero;fill:rgb(48.627451%,43.137255%,94.901961%);fill-opacity:1;" d="M 108.210938 185.1875 L 113.5625 186.492188 L 114.4375 181.722656 C 114.675781 180.441406 113.78125 179.222656 112.46875 179.035156 C 111.367188 178.875 110.300781 179.5 109.921875 180.53125 Z M 108.210938 185.1875 "/>
<path style=" stroke:none;fill-rule:nonzero;fill:rgb(1.176471%,20.392157%,37.254902%);fill-opacity:1;" d="M 113.742188 194.460938 L 97.257812 202.832031 C 95.726562 203.605469 94.804688 205.21875 94.902344 206.929688 L 96.144531 228.117188 L 98.675781 228.117188 L 102.085938 205.449219 L 114.921875 196.433594 Z M 113.742188 194.460938 "/>
<path style=" stroke:none;fill-rule:nonzero;fill:rgb(15.686275%,17.254902%,23.529412%);fill-opacity:1;" d="M 110.832031 165.527344 C 110.832031 165.527344 115.414062 163.96875 117.820312 168.308594 C 117.960938 168.558594 118.113281 168.804688 118.300781 169.023438 C 118.789062 169.601562 119.808594 170.664062 120.933594 171.007812 C 125.390625 172.375 128.210938 180.808594 119.335938 181.558594 C 108.230469 182.5 105.078125 180.308594 106.667969 175.878906 C 107.800781 172.722656 106.789062 170.480469 106.789062 170.480469 Z M 110.832031 165.527344 "/>
<path style=" stroke:none;fill-rule:nonzero;fill:rgb(34.509804%,23.137255%,96.078431%);fill-opacity:1;" d="M 114.492188 176.84375 L 112.121094 177.898438 C 110.710938 178.527344 109.804688 179.933594 109.820312 181.476562 C 109.859375 184.589844 110.5625 192.320312 113.195312 195.277344 L 121.207031 195.277344 C 122.449219 189.800781 121.734375 181.382812 121.734375 181.382812 C 121.8125 179.320312 120.296875 177.542969 118.246094 177.292969 Z M 114.492188 176.84375 "/>
<path style=" stroke:none;fill-rule:nonzero;fill:rgb(86.666667%,69.803922%,55.294118%);fill-opacity:1;" d="M 114.710938 179.398438 C 113.875 179.492188 113.117188 178.902344 113.011719 178.066406 L 112.359375 172.972656 L 115.410156 172.617188 L 116.054688 177.675781 C 116.164062 178.523438 115.558594 179.296875 114.710938 179.398438 Z M 114.710938 179.398438 "/>
<path style=" stroke:none;fill-rule:nonzero;fill:rgb(89.019608%,73.72549%,60.392157%);fill-opacity:1;" d="M 112.195312 176.773438 L 112.070312 176.789062 C 110.039062 177.054688 108.179688 175.621094 107.914062 173.589844 L 107.335938 169.148438 L 114.816406 168.175781 L 115.394531 172.613281 C 115.660156 174.648438 114.226562 176.507812 112.195312 176.773438 Z M 112.195312 176.773438 "/>
<path style=" stroke:none;fill-rule:nonzero;fill:rgb(15.686275%,17.254902%,23.529412%);fill-opacity:1;" d="M 115.636719 170.910156 L 115 172.234375 C 115 172.234375 114.148438 172.96875 113.910156 171.117188 C 113.703125 169.550781 112.566406 169.824219 112.566406 169.824219 C 112.566406 169.824219 108.667969 172.773438 106.378906 170.75 C 104.570312 169.152344 107.492188 166.226562 110.832031 165.527344 L 115.214844 167.441406 Z M 115.636719 170.910156 "/>
<path style=" stroke:none;fill-rule:nonzero;fill:rgb(89.019608%,73.72549%,60.392157%);fill-opacity:1;" d="M 117.023438 172.136719 C 117.023438 172.820312 116.46875 173.375 115.785156 173.375 C 115.101562 173.375 114.546875 172.820312 114.546875 172.136719 C 114.546875 171.453125 115.101562 170.898438 115.785156 170.898438 C 116.46875 170.898438 117.023438 171.453125 117.023438 172.136719 Z M 117.023438 172.136719 "/>
<path style=" stroke:none;fill-rule:nonzero;fill:rgb(100%,100%,100%);fill-opacity:1;" d="M 116.007812 172.6875 C 116.007812 172.8125 115.90625 172.914062 115.785156 172.914062 C 115.660156 172.914062 115.5625 172.8125 115.5625 172.6875 C 115.5625 172.566406 115.660156 172.464844 115.785156 172.464844 C 115.90625 172.464844 116.007812 172.566406 116.007812 172.6875 Z M 116.007812 172.6875 "/>
<path style=" stroke:none;fill-rule:nonzero;fill:rgb(100%,100%,100%);fill-opacity:1;" d="M 109.242188 174.625 L 111.339844 174.179688 C 111.339844 174.179688 111.441406 175.089844 110.292969 175.253906 C 109.386719 175.382812 109.242188 174.625 109.242188 174.625 Z M 109.242188 174.625 "/>
<path style=" stroke:none;fill-rule:nonzero;fill:rgb(1.176471%,20.392157%,37.254902%);fill-opacity:1;" d="M 121.207031 195.277344 L 113.195312 195.277344 L 100.371094 203.027344 C 98.859375 203.941406 98.261719 205.835938 98.972656 207.449219 L 108.816406 229.824219 L 111.660156 229.488281 L 106.371094 207.902344 C 110.808594 207.710938 119.054688 207.042969 121.210938 204.640625 C 124.855469 200.578125 121.207031 195.277344 121.207031 195.277344 Z M 121.207031 195.277344 "/>
<path style=" stroke:none;fill-rule:nonzero;fill:rgb(57.647059%,71.764706%,98.039216%);fill-opacity:1;" d="M 93.875 181.238281 L 98.449219 193.53125 L 83.585938 193.53125 L 79.355469 181.953125 C 79.230469 181.605469 79.484375 181.238281 79.855469 181.238281 Z M 93.875 181.238281 "/>
<path style=" stroke:none;fill-rule:nonzero;fill:rgb(66.27451%,78.823529%,98.039216%);fill-opacity:1;" d="M 93.875 181.238281 L 94.585938 181.238281 C 94.96875 181.238281 95.308594 181.476562 95.441406 181.835938 L 99.753906 193.53125 L 98.449219 193.53125 Z M 93.875 181.238281 "/>
<path style=" stroke:none;fill-rule:nonzero;fill:rgb(50.980392%,65.490196%,90.588235%);fill-opacity:1;" d="M 84.699219 194.714844 L 98.449219 194.714844 L 98.449219 193.53125 L 83.625 193.53125 L 83.625 193.644531 C 83.625 194.234375 84.105469 194.714844 84.699219 194.714844 Z M 84.699219 194.714844 "/>
<path style=" stroke:none;fill-rule:nonzero;fill:rgb(55.686275%,71.372549%,92.54902%);fill-opacity:1;" d="M 98.449219 194.714844 L 107.621094 194.714844 C 107.945312 194.714844 108.210938 194.449219 108.210938 194.125 C 108.210938 193.796875 107.945312 193.53125 107.621094 193.53125 L 98.449219 193.53125 Z M 98.449219 194.714844 "/>
<path style=" stroke:none;fill-rule:nonzero;fill:rgb(92.54902%,94.901961%,96.078431%);fill-opacity:1;" d="M 89.359375 189.332031 C 90.058594 189.101562 90.398438 188.222656 90.117188 187.375 C 89.835938 186.523438 89.039062 186.023438 88.339844 186.257812 C 87.640625 186.488281 87.300781 187.363281 87.582031 188.214844 C 87.863281 189.0625 88.65625 189.5625 89.359375 189.332031 Z M 89.359375 189.332031 "/>
<path style=" stroke:none;fill-rule:nonzero;fill:rgb(89.019608%,73.72549%,60.392157%);fill-opacity:1;" d="M 119.890625 183.921875 L 116.449219 192.570312 L 116.375 192.761719 C 116.167969 193.273438 115.671875 193.585938 115.152344 193.582031 L 105.367188 193.519531 C 104.96875 193.515625 104.644531 193.191406 104.648438 192.789062 C 104.652344 192.429688 104.917969 192.132812 105.265625 192.082031 L 114.945312 190.648438 L 113.652344 191.660156 L 115.957031 182.640625 C 116.242188 181.53125 117.371094 180.863281 118.480469 181.148438 C 119.589844 181.429688 120.257812 182.5625 119.976562 183.667969 C 119.953125 183.753906 119.921875 183.84375 119.890625 183.921875 Z M 119.890625 183.921875 "/>
<path style=" stroke:none;fill-rule:nonzero;fill:rgb(89.019608%,73.72549%,60.392157%);fill-opacity:1;" d="M 106.429688 191.898438 L 103.085938 191.828125 C 102.261719 191.828125 101.589844 192.589844 101.589844 193.527344 L 106.46875 193.527344 Z M 106.429688 191.898438 "/>
<path style=" stroke:none;fill-rule:nonzero;fill:rgb(48.627451%,43.137255%,94.901961%);fill-opacity:1;" d="M 114.460938 184.992188 L 119.8125 186.324219 L 120.6875 181.464844 C 120.925781 180.160156 120.035156 178.917969 118.71875 178.722656 C 117.617188 178.5625 116.550781 179.199219 116.171875 180.25 Z M 114.460938 184.992188 "/>
<path style=" stroke:none;fill-rule:nonzero;fill:rgb(16.078431%,19.607843%,23.921569%);fill-opacity:1;" d="M 107.949219 230.347656 L 106.703125 231.578125 L 103.894531 232.261719 C 103.605469 232.332031 103.375 232.542969 103.273438 232.824219 L 103.132812 233.230469 C 103.0625 233.433594 103.214844 233.644531 103.429688 233.636719 L 112.457031 233.417969 C 112.75 233.410156 112.980469 233.160156 112.957031 232.867188 L 112.246094 230.308594 L 110.878906 230.632812 C 110.421875 230.785156 109.925781 230.734375 109.507812 230.492188 L 109.023438 230.210938 C 108.675781 230.007812 108.234375 230.0625 107.949219 230.347656 Z M 107.949219 230.347656 "/>
<path style=" stroke:none;fill-rule:nonzero;fill:rgb(16.078431%,19.607843%,23.921569%);fill-opacity:1;" d="M 94.988281 228.570312 L 93.742188 229.804688 L 90.9375 230.488281 C 90.648438 230.558594 90.414062 230.769531 90.316406 231.050781 L 90.171875 231.457031 C 90.101562 231.65625 90.253906 231.867188 90.46875 231.863281 L 98.640625 231.691406 C 98.933594 231.683594 99.164062 231.429688 99.140625 231.140625 L 98.925781 228.523438 L 97.917969 228.859375 C 97.464844 229.011719 96.964844 228.960938 96.546875 228.71875 L 96.0625 228.433594 C 95.714844 228.234375 95.277344 228.289062 94.988281 228.570312 Z M 94.988281 228.570312 "/>
<path style=" stroke:none;fill-rule:nonzero;fill:rgb(57.647059%,71.764706%,98.039216%);fill-opacity:1;" d="M 76.121094 190.992188 C 76.121094 190.992188 79.902344 191.003906 79.117188 187.109375 C 79.117188 187.109375 75.148438 187.503906 76.121094 190.992188 Z M 76.121094 190.992188 "/>
<path style=" stroke:none;fill-rule:nonzero;fill:rgb(57.647059%,71.764706%,98.039216%);fill-opacity:1;" d="M 75.644531 190.78125 C 75.644531 190.78125 71.816406 190.796875 72.613281 186.855469 C 72.613281 186.855469 76.628906 187.25 75.644531 190.78125 Z M 75.644531 190.78125 "/>
<path style=" stroke:none;fill-rule:nonzero;fill:rgb(50.980392%,65.490196%,90.588235%);fill-opacity:1;" d="M 75.820312 190.796875 C 75.820312 190.796875 73.035156 187.984375 76.320312 185.507812 C 76.320312 185.507812 78.964844 188.777344 75.820312 190.796875 Z M 75.820312 190.796875 "/>
<path style=" stroke:none;fill-rule:nonzero;fill:rgb(34.509804%,23.137255%,96.078431%);fill-opacity:1;" d="M 78.878906 190.464844 L 72.761719 190.464844 L 73.738281 194.714844 L 77.828125 194.714844 Z M 78.878906 190.464844 "/>
<path style="fill:none;stroke-width:3;stroke-linecap:butt;stroke-linejoin:miter;stroke:rgb(53.333333%,47.058824%,97.647059%);stroke-opacity:1;stroke-miterlimit:10;" d="M 477.498122 1015.545054 L 477.498122 1171.209878 " transform="matrix(0.19245,0,0,0.192496,0,0)"/>
<path style=" stroke:none;fill-rule:evenodd;fill:rgb(96.862745%,87.843137%,69.803922%);fill-opacity:1;" d="M 58.054688 61.234375 C 57.4375 61.859375 56.824219 62.484375 56.207031 63.105469 C 56.03125 63.28125 55.855469 63.460938 55.738281 63.683594 C 55.628906 63.710938 55.574219 63.628906 55.511719 63.570312 C 55.027344 63.089844 54.546875 62.605469 54.066406 62.125 C 54.011719 62.066406 53.945312 62.011719 53.949219 61.921875 C 54.03125 61.738281 54.1875 61.613281 54.324219 61.472656 C 55.335938 60.453125 56.351562 59.441406 57.367188 58.425781 C 57.667969 58.125 57.988281 57.855469 58.382812 57.691406 C 58.769531 57.957031 59.074219 58.308594 59.378906 58.660156 C 59.382812 58.683594 59.382812 58.710938 59.378906 58.738281 C 59.234375 59.003906 58.996094 59.1875 58.785156 59.386719 C 58.296875 59.84375 58.03125 60.378906 58.105469 61.058594 C 58.113281 61.125 58.09375 61.183594 58.054688 61.234375 Z M 58.054688 61.234375 "/>
<path style=" stroke:none;fill-rule:evenodd;fill:rgb(96.862745%,87.843137%,69.803922%);fill-opacity:1;" d="M 62.648438 69.769531 C 62.4375 70.027344 62.179688 70.230469 61.890625 70.390625 C 61.753906 70.394531 61.683594 70.289062 61.597656 70.214844 C 61.003906 69.683594 60.328125 69.453125 59.535156 69.632812 C 59.132812 69.722656 58.785156 69.921875 58.492188 70.214844 C 58.398438 70.304688 58.328125 70.4375 58.164062 70.421875 C 57.765625 70.238281 57.472656 69.921875 57.167969 69.617188 C 56.976562 69.417969 56.785156 69.21875 56.59375 69.019531 C 56.5625 68.921875 56.632812 68.867188 56.6875 68.8125 C 57.109375 68.382812 57.527344 67.949219 57.96875 67.542969 C 58.074219 67.441406 58.179688 67.285156 58.375 67.335938 C 58.613281 67.566406 58.851562 67.792969 59.089844 68.027344 C 59.65625 68.585938 60.308594 68.59375 60.890625 68.039062 C 60.917969 68.011719 60.945312 67.992188 60.972656 67.96875 C 61.078125 67.96875 61.132812 68.042969 61.195312 68.105469 C 61.613281 68.519531 62.03125 68.933594 62.445312 69.355469 C 62.554688 69.46875 62.667969 69.589844 62.648438 69.769531 Z M 62.648438 69.769531 "/>
<path style=" stroke:none;fill-rule:evenodd;fill:rgb(96.862745%,87.843137%,69.803922%);fill-opacity:1;" d="M 59.355469 58.707031 C 59.351562 58.691406 59.351562 58.675781 59.351562 58.660156 C 59.65625 58.3125 59.992188 57.988281 60.335938 57.675781 C 60.480469 57.542969 60.652344 57.445312 60.855469 57.417969 C 61.5 57.550781 62.042969 57.867188 62.511719 58.316406 C 62.914062 58.703125 63.296875 59.109375 63.699219 59.496094 C 63.8125 59.605469 63.796875 59.664062 63.691406 59.769531 C 63.203125 60.246094 62.714844 60.726562 62.242188 61.21875 C 62.097656 61.375 62.015625 61.351562 61.882812 61.210938 C 61.570312 60.875 61.234375 60.5625 60.917969 60.230469 C 60.746094 60.054688 60.554688 59.914062 60.320312 59.828125 C 60.046875 59.414062 59.632812 59.121094 59.355469 58.707031 Z M 59.355469 58.707031 "/>
<path style=" stroke:none;fill-rule:evenodd;fill:rgb(96.862745%,87.843137%,69.803922%);fill-opacity:1;" d="M 64.941406 65.40625 C 64.632812 65.421875 64.390625 65.3125 64.191406 65.121094 C 63.875 64.8125 63.558594 64.507812 63.257812 64.183594 C 62.824219 63.722656 62.835938 63.105469 63.277344 62.640625 C 63.558594 62.351562 63.84375 62.066406 64.132812 61.785156 C 64.660156 61.277344 65.425781 61.347656 65.875 61.925781 C 65.96875 62.050781 65.871094 62.082031 65.816406 62.140625 C 65.621094 62.347656 65.394531 62.523438 65.332031 62.832031 C 65.269531 63.15625 65.34375 63.4375 65.570312 63.671875 C 65.785156 63.898438 66.015625 64.113281 66.238281 64.332031 C 66.289062 64.378906 66.371094 64.417969 66.28125 64.5 C 66.007812 64.757812 65.777344 65.066406 65.460938 65.273438 C 65.300781 65.378906 65.117188 65.425781 64.941406 65.40625 Z M 64.941406 65.40625 "/>
<path style=" stroke:none;fill-rule:evenodd;fill:rgb(96.862745%,87.843137%,69.803922%);fill-opacity:1;" d="M 58.375 67.335938 C 58.199219 67.410156 58.058594 67.535156 57.929688 67.667969 C 57.480469 68.117188 57.039062 68.566406 56.59375 69.019531 C 56.488281 68.945312 56.398438 68.859375 56.328125 68.753906 C 56.472656 68.441406 56.632812 68.136719 56.648438 67.769531 C 56.667969 67.199219 56.484375 66.71875 56.089844 66.3125 C 55.605469 65.8125 55.085938 65.34375 54.621094 64.820312 C 54.609375 64.796875 54.601562 64.769531 54.597656 64.742188 C 54.59375 64.316406 54.554688 63.90625 54.34375 63.519531 C 54.210938 63.28125 54.042969 63.078125 53.851562 62.886719 C 53.746094 62.78125 53.609375 62.699219 53.574219 62.535156 C 53.652344 62.300781 53.78125 62.101562 53.949219 61.921875 C 54.542969 62.507812 55.140625 63.097656 55.738281 63.683594 C 55.570312 64.261719 55.757812 64.714844 56.183594 65.128906 C 56.929688 65.847656 57.644531 66.597656 58.375 67.335938 Z M 58.375 67.335938 "/>
<path style=" stroke:none;fill-rule:evenodd;fill:rgb(96.862745%,87.843137%,69.803922%);fill-opacity:1;" d="M 54.660156 64.8125 C 55.265625 65.40625 55.9375 65.945312 56.421875 66.644531 C 56.835938 67.242188 56.816406 67.90625 56.5 68.554688 C 56.460938 68.640625 56.40625 68.707031 56.324219 68.753906 C 55.507812 67.933594 54.632812 67.167969 53.898438 66.261719 C 53.910156 66.167969 53.984375 66.105469 54.039062 66.039062 C 54.285156 65.726562 54.488281 65.394531 54.5625 64.996094 C 54.578125 64.929688 54.589844 64.855469 54.660156 64.8125 Z M 54.660156 64.8125 "/>
<path style=" stroke:none;fill-rule:evenodd;fill:rgb(96.862745%,87.843137%,69.803922%);fill-opacity:1;" d="M 62.648438 69.769531 C 62.492188 69.425781 62.207031 69.191406 61.949219 68.929688 C 61.628906 68.605469 61.300781 68.289062 60.972656 67.96875 C 61.714844 67.222656 62.457031 66.476562 63.195312 65.726562 C 63.289062 65.628906 63.34375 65.652344 63.429688 65.738281 C 63.609375 65.921875 63.800781 66.101562 63.992188 66.28125 C 64.003906 66.394531 63.917969 66.457031 63.851562 66.527344 C 63.746094 66.636719 63.636719 66.742188 63.527344 66.851562 C 62.882812 67.496094 62.75 68.226562 63.121094 69.066406 C 63.144531 69.125 63.175781 69.179688 63.171875 69.246094 C 63.015625 69.4375 62.839844 69.613281 62.648438 69.769531 Z M 62.648438 69.769531 "/>
<path style=" stroke:none;fill-rule:evenodd;fill:rgb(96.862745%,87.843137%,69.803922%);fill-opacity:1;" d="M 63.171875 69.246094 C 62.703125 68.71875 62.730469 67.5625 63.3125 66.96875 C 63.535156 66.738281 63.765625 66.507812 63.992188 66.28125 C 64.589844 66.640625 65.21875 66.742188 65.890625 66.480469 C 64.976562 67.410156 64.074219 68.328125 63.171875 69.246094 Z M 63.171875 69.246094 "/>
<path style=" stroke:none;fill-rule:evenodd;fill:rgb(96.862745%,87.843137%,69.803922%);fill-opacity:1;" d="M 65.472656 58.597656 C 65.863281 58.597656 66.679688 59.402344 66.6875 59.792969 C 66.695312 60.195312 65.878906 61.023438 65.472656 61.023438 C 65.070312 61.023438 64.253906 60.195312 64.261719 59.792969 C 64.269531 59.402344 65.082031 58.597656 65.472656 58.597656 Z M 65.472656 58.597656 "/>
<path style=" stroke:none;fill-rule:evenodd;fill:rgb(96.862745%,87.843137%,69.803922%);fill-opacity:1;" d="M 66.871094 61.890625 C 67.265625 61.886719 68.035156 62.648438 68.039062 63.03125 C 68.039062 63.40625 67.269531 64.1875 66.890625 64.1875 C 66.855469 64.1875 66.820312 64.175781 66.785156 64.171875 C 66.472656 64.117188 65.773438 63.402344 65.734375 63.09375 C 65.71875 62.945312 65.757812 62.800781 65.847656 62.6875 C 66.050781 62.433594 66.28125 62.207031 66.53125 62 C 66.628906 61.917969 66.75 61.878906 66.871094 61.890625 Z M 66.871094 61.890625 "/>
<path style=" stroke:none;fill-rule:evenodd;fill:rgb(96.862745%,87.843137%,69.803922%);fill-opacity:1;" d="M 58.164062 70.421875 C 58.410156 70.214844 58.613281 69.960938 58.902344 69.804688 C 59.851562 69.289062 60.875 69.433594 61.691406 70.207031 C 61.757812 70.269531 61.824219 70.328125 61.890625 70.390625 C 60.84375 71.089844 59.191406 71.105469 58.164062 70.421875 Z M 58.164062 70.421875 "/>
<path style=" stroke:none;fill-rule:evenodd;fill:rgb(96.862745%,87.843137%,69.803922%);fill-opacity:1;" d="M 68.746094 65.726562 C 68.753906 65.847656 68.730469 65.964844 68.648438 66.054688 C 68.441406 66.269531 68.242188 66.488281 68.019531 66.679688 C 67.804688 66.859375 67.519531 66.835938 67.304688 66.636719 C 67.121094 66.46875 66.941406 66.289062 66.769531 66.105469 C 66.5625 65.875 66.570312 65.558594 66.78125 65.328125 C 66.945312 65.148438 67.117188 64.976562 67.296875 64.8125 C 67.523438 64.601562 67.808594 64.578125 68.027344 64.769531 C 68.246094 64.957031 68.441406 65.171875 68.636719 65.378906 C 68.730469 65.472656 68.753906 65.597656 68.746094 65.726562 Z M 68.746094 65.726562 "/>
<path style=" stroke:none;fill-rule:evenodd;fill:rgb(96.862745%,87.843137%,69.803922%);fill-opacity:1;" d="M 68.050781 59.542969 C 68.214844 59.550781 68.335938 59.597656 68.433594 59.703125 C 68.566406 59.835938 68.703125 59.964844 68.832031 60.105469 C 69.042969 60.335938 69.046875 60.5625 68.851562 60.804688 C 68.847656 60.808594 68.839844 60.816406 68.835938 60.824219 C 68.058594 61.6875 67.941406 61.476562 67.261719 60.761719 C 67.128906 60.617188 67.113281 60.417969 67.210938 60.257812 C 67.375 59.984375 67.613281 59.773438 67.867188 59.589844 C 67.921875 59.550781 68.003906 59.554688 68.050781 59.542969 Z M 68.050781 59.542969 "/>
<path style=" stroke:none;fill-rule:evenodd;fill:rgb(96.862745%,87.843137%,69.803922%);fill-opacity:1;" d="M 59.355469 58.707031 C 59.714844 59.046875 60.121094 59.351562 60.320312 59.828125 C 59.847656 59.699219 59.460938 59.839844 59.125 60.179688 C 58.773438 60.539062 58.410156 60.882812 58.054688 61.234375 C 57.953125 60.582031 58.09375 60 58.566406 59.515625 C 58.828125 59.246094 59.089844 58.976562 59.355469 58.707031 Z M 59.355469 58.707031 "/>
<path style=" stroke:none;fill-rule:evenodd;fill:rgb(96.862745%,87.843137%,69.803922%);fill-opacity:1;" d="M 54.660156 64.8125 C 54.589844 65.390625 54.332031 65.871094 53.902344 66.261719 C 53.417969 65.625 53.183594 64.910156 53.203125 64.109375 C 53.234375 64.074219 53.277344 64.046875 53.320312 64.050781 C 53.855469 64.113281 54.335938 64.277344 54.652344 64.753906 C 54.652344 64.773438 54.65625 64.792969 54.660156 64.8125 Z M 54.660156 64.8125 "/>
<path style=" stroke:none;fill-rule:evenodd;fill:rgb(96.862745%,87.843137%,69.803922%);fill-opacity:1;" d="M 54.652344 64.753906 C 54.238281 64.382812 53.78125 64.113281 53.203125 64.109375 C 53.195312 63.550781 53.308594 63.023438 53.574219 62.535156 C 54.066406 62.953125 54.488281 63.417969 54.621094 64.082031 C 54.664062 64.308594 54.65625 64.527344 54.652344 64.753906 Z M 54.652344 64.753906 "/>
<path style=" stroke:none;fill-rule:evenodd;fill:rgb(96.862745%,87.843137%,69.803922%);fill-opacity:1;" d="M 60.855469 57.417969 C 60.351562 57.65625 60.007812 58.082031 59.621094 58.457031 C 59.539062 58.535156 59.476562 58.644531 59.351562 58.660156 C 59.027344 58.335938 58.707031 58.015625 58.382812 57.691406 C 59.175781 57.296875 60 57.199219 60.855469 57.417969 Z M 60.855469 57.417969 "/>
<path style=" stroke:none;fill-rule:evenodd;fill:rgb(96.862745%,87.843137%,69.803922%);fill-opacity:1;" d="M 67.800781 57.671875 C 68.011719 57.671875 68.410156 58.0625 68.417969 58.273438 C 68.425781 58.484375 68.007812 58.914062 67.800781 58.914062 C 67.597656 58.914062 67.167969 58.472656 67.179688 58.273438 C 67.1875 58.066406 67.597656 57.671875 67.800781 57.671875 Z M 67.800781 57.671875 "/>
<path style=" stroke:none;fill-rule:evenodd;fill:rgb(96.862745%,87.843137%,69.803922%);fill-opacity:1;" d="M 69.769531 62.863281 C 69.765625 63.070312 69.359375 63.464844 69.15625 63.457031 C 68.949219 63.453125 68.558594 63.050781 68.5625 62.84375 C 68.566406 62.628906 68.972656 62.230469 69.175781 62.238281 C 69.375 62.246094 69.773438 62.664062 69.769531 62.863281 Z M 69.769531 62.863281 "/>
<path style=" stroke:none;fill-rule:evenodd;fill:rgb(96.862745%,87.843137%,69.803922%);fill-opacity:1;" d="M 63.902344 58.871094 C 63.738281 58.867188 63.398438 58.519531 63.410156 58.363281 C 63.421875 58.210938 63.765625 57.890625 63.910156 57.890625 C 64.0625 57.894531 64.398438 58.21875 64.402344 58.371094 C 64.410156 58.535156 64.070312 58.871094 63.902344 58.871094 Z M 63.902344 58.871094 "/>
<path style=" stroke:none;fill-rule:evenodd;fill:rgb(96.862745%,87.843137%,69.803922%);fill-opacity:1;" d="M 69.953125 61.617188 C 69.957031 61.757812 69.710938 62.015625 69.570312 62.019531 C 69.429688 62.023438 69.175781 61.777344 69.167969 61.636719 C 69.164062 61.5 69.410156 61.242188 69.550781 61.238281 C 69.691406 61.234375 69.945312 61.472656 69.953125 61.617188 Z M 69.953125 61.617188 "/>
<path style=" stroke:none;fill-rule:nonzero;fill:rgb(84.313725%,90.980392%,96.862745%);fill-opacity:1;" d="M 72.238281 75.363281 L 50.628906 75.363281 C 50.035156 75.363281 49.554688 75.042969 49.554688 74.648438 L 49.554688 74.582031 C 49.554688 74.1875 50.035156 73.867188 50.628906 73.867188 L 72.238281 73.867188 C 72.828125 73.867188 73.308594 74.1875 73.308594 74.582031 L 73.308594 74.648438 C 73.308594 75.042969 72.828125 75.363281 72.238281 75.363281 Z M 72.238281 75.363281 "/>
<path style=" stroke:none;fill-rule:nonzero;fill:rgb(84.313725%,90.980392%,96.862745%);fill-opacity:1;" d="M 63.152344 78.058594 L 50.199219 78.058594 C 49.84375 78.058594 49.554688 77.738281 49.554688 77.34375 L 49.554688 77.273438 C 49.554688 76.882812 49.84375 76.5625 50.199219 76.5625 L 63.152344 76.5625 C 63.503906 76.5625 63.792969 76.878906 63.792969 77.273438 L 63.792969 77.34375 C 63.792969 77.738281 63.503906 78.058594 63.152344 78.058594 Z M 63.152344 78.058594 "/>
</g>
</svg>
